<?xml version="1.0" encoding="utf-8"?>
<!-- Generator: Adobe Illustrator 25.1.0, SVG Export Plug-In . SVG Version: 6.00 Build 0)  -->
<svg version="1.1" id="Layer_1" xmlns="http://www.w3.org/2000/svg" xmlns:xlink="http://www.w3.org/1999/xlink" x="0px" y="0px"
	 viewBox="0 0 2000 2000" style="enable-background:new 0 0 2000 2000;" xml:space="preserve">
<style type="text/css">
	.st0{fill:none;}
	.st1{fill:#F5F5F5;}
</style>
<rect id="XMLID_164_" y="0" class="st0" width="2000" height="2000"/>
<g id="XMLID_581_">
	<g id="XMLID_640_">
		<path id="XMLID_641_" class="st1" d="M1304.8,629.4v971.3c0,40.8,46.7,63.9,79.1,39.1l319.3-244c12.2-9.3,19.3-23.8,19.3-39.1
			V409.8c0-40.8-46.7-63.9-79.1-39.1L1304.8,629.4z"/>
	</g>
	<g id="XMLID_635_">
		<path id="XMLID_638_" class="st1" d="M964.4,819.4L791.1,687v620.4c0,15.6,7.4,30.2,19.8,39.5l159.7,118.8c17.4,13,41.3,13,58.8,0
			l159.7-118.8c12.5-9.3,19.8-23.9,19.8-39.5V687l-173.3,132.4C1014.6,835.4,985.4,835.4,964.4,819.4z"/>
	</g>
	<g id="XMLID_631_">
		<path id="XMLID_645_" class="st1" d="M277.5,399.3v946.9c0,15.3,7.1,29.8,19.3,39.1l319.3,244c32.4,24.7,79.1,1.7,79.1-39.1V618.9
			L356.6,360.2C324.2,335.5,277.5,358.5,277.5,399.3z"/>
	</g>
</g>
</svg>
