<?xml version="1.0" encoding="utf-8"?>
<!-- Generator: Adobe Illustrator 25.1.0, SVG Export Plug-In . SVG Version: 6.00 Build 0)  -->
<svg version="1.1" id="Layer_1" xmlns="http://www.w3.org/2000/svg" xmlns:xlink="http://www.w3.org/1999/xlink" x="0px" y="0px"
	 viewBox="0 0 800 800" style="enable-background:new 0 0 800 800;" xml:space="preserve">
<style type="text/css">
	.st0{fill:#CBE8FE;}
	.st1{fill:#F6F6F6;}
	.st2{fill:#D2D2D2;}
	.st3{fill:#10538B;}
	.st4{fill:#0C476F;}
	.st5{fill:#728090;}
	.st6{fill:#2D94F2;}
	.st7{fill:#E0AB8B;}
	.st8{fill:#FEBD57;}
</style>
<g id="XMLID_109_">
	<path id="XMLID_293_" class="st0" d="M119.6,545.6c-15.5,25.4-65.3,42.3-17.4,107s151.7,114.4,188.9,56.2
		c37.2-58.2,67.7-58.2,106.4-37.7c38.6,20.4,48.6,63.3,94.2,63.5c140.7,0.9,276.8-87.3,292.2-197.4c11.5-81.8,17.1-134.5-79-206.5
		S347.5,85.1,174.2,135.4C81.6,162.3-19.6,239.3,19,338.5C69.9,469.9,207.6,402.8,119.6,545.6z"/>
	<g id="XMLID_29_">
		<g id="XMLID_18_">
			<path id="XMLID_120_" class="st1" d="M337.2,528.4c0,0,11.5-1.5,14.4-4.9c3-3.5,9.1-11,14.1-6.6c2.8,2.4,5.7,5.5,5.7,5.5
				s0.8,4.6,0.8,5.4c0.2,2-0.1,3.9-1.2,6.1c-3.3,6.6-5.1,14.3-9.7,17.2c-4.8,3-4.2,3.7-11.3,8c-7.1,4.2-9.4,8.5-12.8,11.6
				c-3.4,3.2-8.3,4.8-15.2,5.1c-6.9,0.2-11.7-2.5-14.2-7.7s-1.5-9.3,0.2-11.7c1.9-2.5,6.2-3.9,8.1-6.2c1.9-2.3,7.9-5,10.3-6.7
				C328.5,541.4,337.2,528.4,337.2,528.4z"/>
			<path id="XMLID_44_" class="st2" d="M336.5,523.7c0,0,11.5-1.5,14.4-4.9c3-3.5,9.1-11,14.1-6.6c5,4.5,8.6,10.4,5.4,16.9
				c-3.3,6.6-5.1,14.3-9.7,17.2c-4.8,3-4.2,3.7-11.3,8c-7.1,4.2-9.4,8.5-12.8,11.6s-8.3,4.8-15.2,5.1c-6.9,0.2-11.7-2.5-14.2-7.7
				c-2.6-5.2-1.5-9.3,0.2-11.7c1.7-2.4,6.2-3.9,8.1-6.2c1.9-2.3,7.9-5,10.3-6.7C327.7,536.9,336.5,523.7,336.5,523.7z"/>
			<path id="XMLID_98_" class="st3" d="M222.6,458.2c0,0,76-33.3,87.6-34.7c11.6-1.2,37.9-3.8,33.3,35.9
				c-4.6,39.8-6.5,90.5-6.5,90.5s-1.7,10.7-8.5,13.3c-6.8,2.6-19.6,3.3-19.6-10.4c0-13.7,5.8-45.3,5.8-51.7
				c0-6.5-77.6,16.7-77.6,16.7S199.1,499.6,222.6,458.2z"/>
			<path id="XMLID_45_" class="st1" d="M385,561.6c0,0,11.6,0.4,15-2.6c3.4-3.1,10.7-9.4,15-4.3c2.4,2.8,4.8,6.2,4.8,6.2
				s0,4.7,0,5.4c-0.1,2-0.8,3.9-2.2,5.9c-4.3,6-7.2,13.3-12.4,15.4c-5.1,2.2-4.7,3-12.4,6c-7.8,3-10.7,6.8-14.5,9.4
				c-3.8,2.6-9,3.4-15.7,2.6c-6.8-0.9-11.2-4.3-12.8-9.8c-1.7-5.6,0-9.4,2.2-11.6s6.8-2.8,9-4.9c2.2-2,8.5-3.6,11.2-5
				C374.5,573,385,561.6,385,561.6z"/>
			<path id="XMLID_22_" class="st2" d="M385,556.9c0,0,11.6,0.4,15-2.6c3.4-3.1,10.7-9.4,15-4.3c4.3,5.1,6.8,11.6,2.6,17.5
				c-4.3,6-7.2,13.3-12.4,15.4c-5.1,2.2-4.7,3-12.4,6c-7.8,3-10.7,6.8-14.5,9.4s-9,3.4-15.7,2.6c-6.8-0.9-11.2-4.3-12.8-9.8
				c-1.7-5.6,0-9.4,2.2-11.6c2.2-2.2,6.8-2.8,9-4.9c2.2-2,8.5-3.6,11.2-5C374.5,568.3,385,556.9,385,556.9z"/>
			<path id="XMLID_19_" class="st4" d="M269.2,478.2c0,0,76-33.3,87.6-34.7c11.6-1.2,37.8-3.8,33.3,35.9
				c-4.6,39.8-6.5,90.5-6.5,90.5s-1.7,10.7-8.5,13.3s-19.6,3.3-19.6-10.4c0-13.8,5.8-45.3,5.8-51.7s-77.6,16.7-77.6,16.7
				S245.7,519.8,269.2,478.2z"/>
		</g>
		<g id="XMLID_9_">
			<polygon id="XMLID_6_" class="st5" points="474.3,515.6 471.8,715.9 474.3,715.9 497.5,523.7 			"/>
			<polygon id="XMLID_7_" class="st5" points="709.1,420.9 718.5,573.5 716.6,575.4 691.3,429.9 			"/>
			<polygon id="XMLID_8_" class="st5" points="102.8,300 84.1,443.8 93.5,448.1 120.4,309.6 			"/>
			<path id="XMLID_4_" class="st2" d="M724.8,394.7v18.7c0,0,1.3,3.6-4.9,7.9c-6.2,4.2-193.5,112.6-193.5,112.6s-16.3,10.3-42.9-5.6
				c-26.5-15.7-403-233.5-403-233.5s-7.1-2.1-7.1-11.5s0-14.2,0-14.2L724.8,394.7z"/>
			<path id="XMLID_5_" class="st1" d="M494.3,514.6L77.1,273.3c-10.6-6.5,4.6-12.5,4.6-12.5s171.7-98.5,189.7-110.1
				c17.9-11.6,35.6,0,35.6,0l411.2,236.7c0,0,14.8,5.5,0.4,14.9c-14.3,9.4-194.7,112.3-194.7,112.3S510,523.7,494.3,514.6z"/>
		</g>
		<g id="XMLID_41_">
			<path id="XMLID_25_" class="st3" d="M421,332.9c0,0,0,3,0,3.3c0,1.2-0.7,2.6-1.9,3.4l-29.7,22.5c-1.3,0.9-3.1,1-4.6,0.1L289,308
				c-1.2-0.7-2-2-2.1-3.3c-0.1-0.7,0-3.5,0-3.5L421,332.9z"/>
			<path id="XMLID_17_" class="st6" d="M322,275.1l96.8,54c2.7,1.6,2.8,5.5,0.2,7.1l-29.7,22.5c-1.3,0.9-3.1,1-4.6,0.1l-95.8-54.2
				c-2.6-1.5-2.8-5.2-0.4-7l28.8-22.3C318.6,274.3,320.4,274.2,322,275.1z"/>
			<g id="XMLID_27_">
				<g id="XMLID_790_">
					<polygon id="XMLID_850_" class="st3" points="325.8,281.9 320.7,278.8 316.6,282.2 321.9,285.3 					"/>
					<polygon id="XMLID_849_" class="st3" points="332.3,285.6 327.1,282.5 322.9,285.9 328.3,289 					"/>
					<polygon id="XMLID_848_" class="st3" points="338.6,289.3 333.4,286.2 329.3,289.6 334.6,292.7 					"/>
					<polygon id="XMLID_847_" class="st3" points="345,293 339.7,290 335.7,293.2 341,296.3 					"/>
					<polygon id="XMLID_846_" class="st3" points="351.3,296.6 346.1,293.6 342,297 347.3,300 					"/>
					<polygon id="XMLID_845_" class="st3" points="357.7,300.5 352.3,297.3 348.4,300.7 353.6,303.7 					"/>
					<polygon id="XMLID_844_" class="st3" points="364,304.1 358.8,301 354.7,304.4 360,307.4 					"/>
					<polygon id="XMLID_843_" class="st3" points="370.5,307.8 365.1,304.7 361.1,308 366.3,311.1 					"/>
					<polygon id="XMLID_842_" class="st3" points="376.8,311.4 371.4,308.3 367.5,311.7 372.6,314.8 					"/>
					<polygon id="XMLID_841_" class="st3" points="383.1,315.2 377.8,312.1 373.8,315.4 379.1,318.5 					"/>
					<polygon id="XMLID_840_" class="st3" points="389.5,318.8 384.1,315.8 380.2,319 385.4,322.1 					"/>
					<polygon id="XMLID_839_" class="st3" points="395.7,322.5 390.6,319.5 386.4,322.8 391.8,325.8 					"/>
					<polygon id="XMLID_838_" class="st3" points="402.2,326.1 396.9,323.1 392.8,326.4 398.1,329.5 					"/>
					<polygon id="XMLID_837_" class="st3" points="403.6,327.1 399.6,330.4 408.8,335.8 412.9,332.5 					"/>
					<polygon id="XMLID_836_" class="st3" points="323.7,288.2 318.4,285.1 314.3,288.4 319.6,291.5 					"/>
					<polygon id="XMLID_835_" class="st3" points="330,291.9 324.8,288.9 320.7,292.3 326,295.3 					"/>
					<polygon id="XMLID_834_" class="st3" points="336.3,295.6 331.1,292.6 327.1,295.9 332.4,298.9 					"/>
					<polygon id="XMLID_833_" class="st3" points="342.7,299.2 337.3,296.2 333.4,299.6 338.6,302.6 					"/>
					<polygon id="XMLID_832_" class="st3" points="349,303 343.7,299.9 339.7,303.2 345,306.4 					"/>
					<polygon id="XMLID_831_" class="st3" points="355.4,306.7 350.1,303.6 346.1,307 351.3,310.1 					"/>
					<polygon id="XMLID_830_" class="st3" points="361.8,310.4 356.5,307.3 352.4,310.6 357.7,313.7 					"/>
					<polygon id="XMLID_829_" class="st3" points="368.2,314 362.8,310.9 358.9,314.3 364,317.4 					"/>
					<polygon id="XMLID_828_" class="st3" points="374.5,317.7 369.1,314.7 365.2,318.1 370.5,321.1 					"/>
					<polygon id="XMLID_827_" class="st3" points="380.7,321.4 375.5,318.4 371.4,321.8 376.8,324.7 					"/>
					<polygon id="XMLID_826_" class="st3" points="387.1,325.2 381.9,322.1 377.8,325.4 383.1,328.4 					"/>
					<polygon id="XMLID_825_" class="st3" points="393.5,328.8 388.3,325.7 384.1,329 389.5,332 					"/>
					<polygon id="XMLID_824_" class="st3" points="390.6,332.8 395.8,335.9 399.9,332.6 394.6,329.5 					"/>
					<polygon id="XMLID_823_" class="st3" points="319.3,293.6 314,290.5 310,293.8 315.4,296.8 					"/>
					<polygon id="XMLID_822_" class="st3" points="325.6,297.2 320.3,294.1 316.3,297.6 321.6,300.7 					"/>
					<polygon id="XMLID_821_" class="st3" points="332,301 326.7,297.9 322.7,301.2 327.9,304.3 					"/>
					<polygon id="XMLID_820_" class="st3" points="338.4,304.6 333.1,301.5 329,304.9 334.3,308 					"/>
					<polygon id="XMLID_819_" class="st3" points="344.8,308.3 339.4,305.3 335.5,308.5 340.6,311.6 					"/>
					<polygon id="XMLID_818_" class="st3" points="351.1,311.9 345.7,308.9 341.8,312.4 347.1,315.4 					"/>
					<polygon id="XMLID_817_" class="st3" points="357.4,315.8 352.1,312.7 348.2,316 353.4,319 					"/>
					<polygon id="XMLID_816_" class="st3" points="363.7,319.4 358.5,316.3 354.4,319.7 359.7,322.8 					"/>
					<polygon id="XMLID_815_" class="st3" points="370.1,323.1 364.9,320 360.7,323.3 366.1,326.4 					"/>
					<polygon id="XMLID_814_" class="st3" points="376.5,326.8 371.2,323.7 367.2,327.1 372.4,330.2 					"/>
					<polygon id="XMLID_813_" class="st3" points="382.8,330.5 377.6,327.5 373.5,330.7 378.9,333.8 					"/>
					<polygon id="XMLID_812_" class="st3" points="389.1,334.1 383.9,331.1 379.9,334.5 385.2,337.5 					"/>
					<polygon id="XMLID_811_" class="st3" points="315.5,299.5 310.1,296.4 306.2,299.7 311.3,302.7 					"/>
					<polygon id="XMLID_810_" class="st3" points="321.8,303.1 316.4,300 312.5,303.5 317.8,306.6 					"/>
					<polygon id="XMLID_809_" class="st3" points="318.9,307.1 324.1,310.2 328.1,306.9 322.8,303.8 					"/>
					<polygon id="XMLID_808_" class="st3" points="334.5,310.5 329.1,307.4 325.2,310.8 330.4,313.9 					"/>
					<polygon id="XMLID_807_" class="st3" points="340.8,314.2 335.6,311.2 331.5,314.4 336.8,317.5 					"/>
					<polygon id="XMLID_806_" class="st3" points="347.2,317.9 341.9,314.8 337.8,318.3 343.1,321.3 					"/>
					<polygon id="XMLID_805_" class="st3" points="353.5,321.7 348.3,318.6 344.2,321.9 349.5,324.9 					"/>
					<polygon id="XMLID_804_" class="st3" points="359.8,325.3 354.6,322.2 350.6,325.6 355.9,328.7 					"/>
					<polygon id="XMLID_803_" class="st3" points="356.9,329.2 362.3,332.3 366.2,329 360.9,325.9 					"/>
					<polygon id="XMLID_802_" class="st3" points="372.5,332.7 367.4,329.6 363.2,333 368.6,336.1 					"/>
					<polygon id="XMLID_801_" class="st3" points="369.6,336.6 374.8,339.7 379,336.4 373.7,333.4 					"/>
					<polygon id="XMLID_800_" class="st3" points="385.3,340 380,337 376,340.4 381.2,343.4 					"/>
					<polygon id="XMLID_799_" class="st3" points="392.1,344 386.7,340.9 382.8,344.3 388.1,347.4 					"/>
					<polygon id="XMLID_798_" class="st3" points="294.1,300.5 299.5,303.5 303.5,300.1 298.3,297.1 					"/>
					<polygon id="XMLID_797_" class="st3" points="302.5,305.3 307.8,308.3 311.9,304.9 306.6,301.9 					"/>
					<polygon id="XMLID_796_" class="st3" points="311.4,310.5 316.8,313.6 320.8,310.2 315.6,307.1 					"/>
					<polygon id="XMLID_795_" class="st3" points="319.3,315 356.8,336.7 360.8,333.5 323.2,311.6 					"/>
					<polygon id="XMLID_794_" class="st3" points="361.1,339.3 366.3,342.3 370.5,339 365.1,336 					"/>
					<polygon id="XMLID_793_" class="st3" points="371.1,345.2 376.5,348.2 380.4,344.8 375.2,341.8 					"/>
					<polygon id="XMLID_792_" class="st3" points="381.3,351.1 386.6,354.1 390.7,350.7 385.4,347.7 					"/>
					<polygon id="XMLID_791_" class="st3" points="386.2,338.1 397.3,344.6 401.4,341.3 390.2,334.8 					"/>
				</g>
			</g>
		</g>
		<g id="XMLID_167_">
			<polygon id="XMLID_170_" class="st4" points="444.9,307.1 402.6,280.7 402.6,274.8 454.9,245.1 497.8,268.7 			"/>
			<polygon id="XMLID_169_" class="st3" points="444.9,301.3 402.6,274.8 454.9,239.3 496,264.4 			"/>
			<polygon id="XMLID_174_" class="st4" points="458,283.7 452.3,287.7 425.2,273.1 425.2,213.5 430.5,208.4 457.5,222.9 			"/>
			<polygon id="XMLID_168_" class="st4" points="452.3,287.7 425.2,273.1 425.2,213.5 452.3,228.1 			"/>
			<polygon id="XMLID_166_" class="st3" points="601.5,333.4 596.2,338.5 327.8,189.6 327.8,57.9 333,52.7 601.5,201.7 			"/>
			<polygon id="XMLID_20_" class="st4" points="596.2,338.5 327.8,189.6 327.8,57.9 596.2,206.8 			"/>
			<path id="XMLID_164_" class="st4" d="M384.4,283.7"/>
			<g id="XMLID_326_">
				<polygon id="XMLID_327_" class="st3" points="333,66.1 333,185.9 488.7,271.6 488.7,151.6 				"/>
				<polygon id="XMLID_328_" class="st2" points="592.1,208.4 488.7,151.6 488.7,271.6 592.1,328.2 				"/>
			</g>
		</g>
		<path id="XMLID_34_" class="st3" d="M414.5,364.5c0,0,22.2-10.5,30.8-6.7c8.6,3.7,13.6,15.5,2,18.3c-11.6,2.7-10.1,8.5-17.8,12.4
			c-7.8,3.8-22.3,0-23.3-8.9C405.3,370.6,403,372.2,414.5,364.5z"/>
		<path id="XMLID_33_" class="st6" d="M414.5,361.7c0,0,22.2-10.5,30.8-6.7c8.6,3.7,13.6,15.5,2,18.3c-11.6,2.7-10.1,8.5-17.8,12.4
			c-7.8,3.8-22.3,0-23.3-8.9C405.3,367.9,403,369.3,414.5,361.7z"/>
		<g id="XMLID_42_">
			<path id="XMLID_99_" class="st7" d="M319.3,361.6c0,0,14.5,23.5,26,21.1c11.5-2.4,57.9-19.7,57.9-19.7s9.5-14.9,20.7-12
				c11.3,2.7,24.8,4.8,21,11.4c-3.7,6.6-2.4,10.7-7.5,10.4c-5.1-0.3-13.9,1-15.2,2.4c-1.3,1.3-9.2,4.5-12.8,3.1
				c-3.7-1.3-17.3,5.9-24.1,10.3c-6.8,4.3-27.1,21.4-43.1,20.4c-15.9-1-46.7-24.6-47-26.7C294.9,380,319.3,361.6,319.3,361.6z"/>
			<path id="XMLID_104_" class="st7" d="M235.2,322.4c0,0,35.9-13.3,44.5-20.1c8.5-6.8,9-14.1,20.6-15c11.6-0.9,20.6,3.8,22.7,4.7
				c2.2,0.8,0.4,9.4-5.1,9s-7.5,4.3-7.8,5.6c-0.2,1.2-0.7,4.9-10.7,5.4c-9.9,0.4-15.1,1.5-19.9,5.1c-4.8,3.6-26,24.6-26,24.6
				L235.2,322.4z"/>
			<path id="XMLID_106_" class="st7" d="M277.3,204.8c0,0,12.8,13.8,9.6,30.2c-3.2,16.5-0.4,30.3-16.1,38.9
				c-15.5,8.5-23.1-2.1-24.8,4.7c-1.7,6.7,0,17.6,0,18.3s-31.3,2.5-30.2-2.8c1-5.4-3.4-10.1-3.1-14.1c0.3-3.9,3.6-16.5,3-23.1
				c-0.7-6.6,3.1-28.2,6.9-32.9C226.6,219.2,271.6,196.5,277.3,204.8z"/>
			<path id="XMLID_107_" class="st4" d="M274.6,217.7c-13.3,2.5-11.6,7.9-10.8,14.6c1.3,12.5-14.9,12-15.3,25.9
				c-0.3,10.7-9.6,18.1-19.9,13.3c-9-4.2-8.2-1-14.8-6.8c-12.4-11-14.8-26.3-15.4-37.5c-1-17.2-1-24.4,14.6-42.7
				c9.4-11,20.6-15.7,34.5-9.9c12.2,5.1,16.9-2,28.3,3.4c13.2,6.2,6,6.7,11.7,17.8C293.7,208.1,287.5,215.2,274.6,217.7z"/>
			<g id="XMLID_15_">
				<g id="XMLID_380_">
					<g id="XMLID_383_">
						<path id="XMLID_384_" class="st6" d="M167,430.9c0,0-20.1-81.3-15-116c5.1-34.7,23.5-45.4,35.1-44.5s30,0.9,35.1,10.3
							c5.1,9.3,23.9,10.3,23.9,10.3s9,0,14.1,9.8c5.1,9.8,28.6,13.8,23.9,41.4c-4.7,27.8-6,74.9-2.6,88.6
							c3.4,13.8,23.5,50.8,15,61.5s-61.2,26.1-93.3-1.7C171.2,462.9,175.1,453.6,167,430.9z"/>
					</g>
					<g id="XMLID_381_">
						<path id="XMLID_382_" class="st6" d="M288,328.4l33.1,28.9c0,0,10.5,8.7,3,20.6c-7.5,11.8-20.8,16.6-28.6,10.6
							c-8-5.9-35.1-29.8-35.1-41.2s2.4-20.3,8.2-23.1C274.4,321.4,281.8,323,288,328.4z"/>
					</g>
				</g>
			</g>
		</g>
		<g id="XMLID_3_">
			<polygon id="XMLID_10_" class="st5" points="248.2,574.7 238.2,719.1 242.1,719.7 269.2,578.1 			"/>
			<polygon id="XMLID_11_" class="st5" points="341.6,541.7 361.7,647.4 363.9,644.5 357.3,535 			"/>
			<polygon id="XMLID_12_" class="st5" points="119.6,651.3 137.8,506.2 151,515.2 121.3,652.5 			"/>
			<path id="XMLID_16_" class="st8" d="M121.4,475.2c0,0-6.2-47.8-7.1-70.8c-0.9-23.1,3.8-51.4,36.8-35.1
				c32.9,16.3,79.3,39.2,92.1,52.6c22.7,23.7,30,42.9,35.5,68.5c5.6,25.7,4.7,35.9,20.1,31.7c15.4-4.3,46.8-35.3,64.6-41.4
				c15.7-5.5,23.9,0.9,26.6,6.5c2.6,5.6,17.5,30.8,0,43.2c-17.5,12.4-42.9,18.8-64.2,31.7c-21.3,12.8-32,20.1-40.7,26.6
				c-9.5,7.1-23.5,6.5-35.9-4.3c-12.4-10.7-94.2-56.1-97.6-58.2C143.1,520.2,124.4,509.7,121.4,475.2z"/>
		</g>
	</g>
	<g id="XMLID_148_">
		<g id="XMLID_145_">
			<path id="XMLID_36_" class="st2" d="M566.4,382.3c0,0,6.1,15.4,6.8,18.8c0.7,3.4,5.2,12.7,18,13c12.8,0.3,17.2-2.3,21-11.6
				c3.7-9.3,8.4-22.4,7.4-26.3c-1-3.9-3.7-17.3-29.6-14.4C564.1,364.7,561.4,373.5,566.4,382.3z"/>
			<path id="XMLID_37_" class="st5" d="M576.3,385.8c0,0,22.2,8.5,32.1,0s6.6-14.6,2.7-17.1c-3.7-2.4-25.6-7.8-37.4,0
				C562,376.5,576.3,385.8,576.3,385.8z"/>
		</g>
		<path id="XMLID_39_" class="st8" d="M586.1,380.1c0,0,6.8,4.5,12.8,1.3c6.2-3.1-0.2-11.7,0-15.4c0.2-2.7-0.4-6.7,3.6-6.3
			c4,0.4,8,0.5,7.8-7.4c-0.2-8,8.5-17.5-4-15.4c-4.2,0.7-4.5,5-4.5,9.4c0,4.4-3.8,3.8-3.9,0c-0.1-3.8,0-18.5-3.4-20.8
			c-3.4-2.3-10.5-5.9-12.5-0.8c-2.1,5.1,2,9.1,3.4,13.8c1.5,4.7,1.2,11-0.9,6.3c-2.2-4.7-5-12-9-8.4c-3.9,3.6-3,7.1-0.9,12
			c2.1,4.9,4.7,10.8,7.8,9.9c3.1-0.9,5.7,0.3,5.4,5.9C587.2,369.9,583.5,376.2,586.1,380.1z"/>
	</g>
	<g id="XMLID_108_">
		<polygon id="XMLID_173_" class="st8" points="341.7,83.1 341.7,86.9 374.2,104.7 374.2,100.8 		"/>
	</g>
	<g id="XMLID_176_">
		<g id="XMLID_358_">
			<g id="XMLID_360_">
				<polygon id="XMLID_361_" class="st4" points="467.6,145.2 467.6,188.2 480.2,195.1 480.2,152.3 				"/>
			</g>
		</g>
	</g>
	<g id="XMLID_171_">
		<polygon id="XMLID_189_" class="st6" points="341.7,91.9 341.7,95.7 436.9,147.7 436.9,143.9 		"/>
	</g>
	<g id="XMLID_172_">
		<polygon id="XMLID_202_" class="st8" points="341.7,152.8 341.7,156.6 360.7,167.1 360.7,163.3 		"/>
	</g>
	<g id="XMLID_157_">
		<g id="XMLID_340_">
			<g id="XMLID_356_">
				<polygon id="XMLID_357_" class="st6" points="341.7,161.5 341.7,165.3 412.9,204.4 412.9,200.4 				"/>
			</g>
		</g>
	</g>
	<g id="XMLID_177_">
		<g id="XMLID_335_">
			<g id="XMLID_336_">
				<polygon id="XMLID_337_" class="st6" points="341.7,170.2 341.7,174.1 399.6,205.7 399.6,201.8 				"/>
			</g>
		</g>
	</g>
	<g id="XMLID_206_">
		<polygon id="XMLID_212_" class="st6" points="341.7,100.5 341.7,104.3 385.2,128.2 385.2,124.3 		"/>
	</g>
	<g id="XMLID_217_">
		<polygon id="XMLID_233_" class="st6" points="341.7,109.2 341.7,113.1 401.2,145.6 401.2,141.8 		"/>
	</g>
	<g id="XMLID_209_">
		<g id="XMLID_329_">
			<g id="XMLID_332_">
				<polygon id="XMLID_333_" class="st6" points="341.7,118 341.7,121.8 412.9,160.7 412.9,156.8 				"/>
			</g>
		</g>
	</g>
	<g id="XMLID_205_">
		<g id="XMLID_312_">
			<g id="XMLID_313_">
				<polygon id="XMLID_314_" class="st6" points="341.7,126.6 341.7,130.5 392.6,158.4 392.6,154.5 				"/>
			</g>
		</g>
	</g>
	<g id="XMLID_154_">
		<polygon id="XMLID_246_" class="st8" points="341.7,135.4 341.7,139.2 363.3,151.1 363.3,147.3 		"/>
	</g>
	<polygon id="XMLID_210_" class="st1" points="564.3,296.2 509.6,266.1 509.6,182.3 564.3,212.3 	"/>
	<polygon id="XMLID_133_" class="st2" points="554.6,243.9 514.3,221.5 514.3,192.3 554.6,214.7 	"/>
	<polygon id="XMLID_136_" class="st2" points="554.6,253 514.3,230.7 514.3,227.2 554.6,249.6 	"/>
</g>
</svg>
