<?xml version="1.0" encoding="utf-8"?>
<!-- Generator: Adobe Illustrator 25.1.0, SVG Export Plug-In . SVG Version: 6.00 Build 0)  -->
<svg version="1.1" id="Layer_1" xmlns="http://www.w3.org/2000/svg" xmlns:xlink="http://www.w3.org/1999/xlink" x="0px" y="0px"
	 viewBox="0 0 30 30" style="enable-background:new 0 0 30 30;" xml:space="preserve">
<style type="text/css">
	.st0{fill:#E7E7EF;}
</style>
<path class="st0" d="M15,0.6C7.1,0.6,0.6,7.1,0.6,15c0,6.7,4.6,12.4,10.9,14c-0.1-0.2-0.1-0.4-0.1-0.7v-2.5c-0.6,0-1.6,0-1.8,0
	c-1,0-1.9-0.4-2.3-1.2c-0.5-0.9-0.6-2.2-1.7-3C5.2,21.3,5.5,21,5.9,21c0.7,0.2,1.3,0.7,1.9,1.5c0.6,0.8,0.8,0.9,1.9,0.9
	c0.5,0,1.3,0,2-0.1c0.4-1,1.1-1.9,1.9-2.4c-4.8-0.5-7.1-2.9-7.1-6.1c0-1.4,0.6-2.7,1.6-3.9C7.9,9.8,7.4,7.5,8.3,6.6
	c2.2,0,3.5,1.4,3.8,1.8c1.1-0.4,2.3-0.6,3.5-0.6c1.2,0,2.4,0.2,3.5,0.6c0.3-0.4,1.6-1.8,3.8-1.8c0.9,0.9,0.5,3.2,0.1,4.3
	c1,1.1,1.6,2.5,1.6,3.9c0,3.2-2.3,5.6-7.1,6.1c1.3,0.7,2.3,2.6,2.3,4.1v3.3c0,0.1,0,0.2,0,0.3c5.6-2,9.6-7.3,9.6-13.6
	C29.4,7.1,22.9,0.6,15,0.6z"/>
</svg>
