<?xml version="1.0" encoding="utf-8"?>
<!-- Generator: Adobe Illustrator 25.1.0, SVG Export Plug-In . SVG Version: 6.00 Build 0)  -->
<svg version="1.1" id="Layer_1" xmlns="http://www.w3.org/2000/svg" xmlns:xlink="http://www.w3.org/1999/xlink" x="0px" y="0px"
	 viewBox="0 0 30 30" style="enable-background:new 0 0 30 30;" xml:space="preserve">
<style type="text/css">
	.st0{fill:#E7E7EF;}
</style>
<path class="st0" d="M26.6,0.8H3.4C2,0.8,0.8,2,0.8,3.4v23.2c0,1.4,1.2,2.6,2.6,2.6h23.2c1.4,0,2.6-1.2,2.6-2.6V3.4
	C29.2,2,28,0.8,26.6,0.8z M9.8,24H6V11.8h3.8V24z M7.8,10c-1.2,0-2.2-1-2.2-2.2s1-2.2,2.2-2.2c1.2,0,2.2,1,2.2,2.2
	C10.1,9,9.1,10,7.8,10z M24,24h-3.8v-5.9c0-1.4,0-3.2-2-3.2c-2,0-2.3,1.5-2.3,3.1V24h-3.8V11.8h3.6v1.7h0.1c0.5-1,1.7-2,3.6-2
	c3.8,0,4.6,2.5,4.6,5.8C24,17.3,24,24,24,24z"/>
</svg>
