<?xml version="1.0" encoding="utf-8"?>
<!-- Generator: Adobe Illustrator 25.1.0, SVG Export Plug-In . SVG Version: 6.00 Build 0)  -->
<svg version="1.1" id="Layer_1" xmlns="http://www.w3.org/2000/svg" xmlns:xlink="http://www.w3.org/1999/xlink" x="0px" y="0px"
	 viewBox="0 0 128 143.6" style="enable-background:new 0 0 128 143.6;" xml:space="preserve">
<style type="text/css">
	.st0{fill:#F5F5F5;stroke:#F5F5F5;stroke-width:0.75;stroke-miterlimit:10;}
</style>
<path class="st0" d="M31.1,45.9h23.5v1.9H33.2v14.4h20.1v1.9H33.2v15.8h21.6v1.9H31.1V45.9z M56.7,45.9h2.5l11.1,15.8l11.2-15.8
	l15.4-20L71.6,63.4l13.1,18.4H82L70.2,65L58.3,81.8h-2.5L69,63.4C69,63.4,56.7,45.9,56.7,45.9z M85.6,47.8v-1.9h26.8v1.9h-12.4v34
	h-2.1v-34H85.6z M1.6,45.9h2.6l37.2,56.8L26.1,81.8L3.9,48.6L3.8,81.8H1.6V45.9z M112.2,79.3c0.5,0,0.8-0.3,0.8-0.8
	s-0.3-0.8-0.8-0.8s-0.8,0.3-0.8,0.8S111.8,79.3,112.2,79.3z M114.4,77.2c0,1.3,1,2.2,2.3,2.2c1.5,0,2.3-0.9,2.3-2.5v-5.5h-1.2v5.5
	c0,0.9-0.4,1.3-1.2,1.3c-0.7,0-1.2-0.4-1.2-1.1L114.4,77.2L114.4,77.2z M120.5,77.1c0.1,1.4,1.2,2.3,2.9,2.3c1.8,0,2.9-0.9,2.9-2.4
	c0-1.2-0.7-1.8-2.1-2.2l-0.9-0.2c-1-0.2-1.4-0.6-1.4-1.1c0-0.7,0.6-1.2,1.6-1.2c0.9,0,1.5,0.4,1.6,1.2h1.2c-0.1-1.3-1.2-2.2-2.7-2.2
	c-1.7,0-2.7,0.9-2.7,2.3c0,1.1,0.6,1.8,1.9,2.1l1,0.2c1,0.2,1.5,0.6,1.5,1.2c0,0.7-0.7,1.2-1.7,1.2s-1.8-0.5-1.9-1.2
	C121.7,77.1,120.5,77.1,120.5,77.1z"/>
</svg>
