<?xml version="1.0" encoding="utf-8"?>
<!-- Generator: Adobe Illustrator 25.1.0, SVG Export Plug-In . SVG Version: 6.00 Build 0)  -->
<svg version="1.1" id="Layer_1" xmlns="http://www.w3.org/2000/svg" xmlns:xlink="http://www.w3.org/1999/xlink" x="0px" y="0px"
	 viewBox="0 0 2324.4 2607.9" style="enable-background:new 0 0 2324.4 2607.9;" xml:space="preserve">
<style type="text/css">
	.st0{fill:#61DAFB;}
</style>
<g>
	<path class="st0" d="M2283.5,1128.7c0-148.2-185.6-288.6-470.1-375.7c65.7-290,36.5-520.7-92.1-594.6
		c-29.6-17.3-64.3-25.5-102.1-25.5v101.7c21,0,37.8,4.1,52,11.9c62,35.6,88.9,171,67.9,345.2c-5,42.9-13.2,88-23.2,134.1
		c-89.4-21.9-186.9-38.8-289.5-49.7c-61.6-84.4-125.4-161-189.7-228c148.6-138.2,288.2-213.8,383-213.8V132.4
		c-125.4,0-289.5,89.4-455.5,244.4C998.1,222.7,834,134.2,708.6,134.2v101.7c94.4,0,234.4,75.2,383,212.5
		c-63.8,67-127.7,143.2-188.3,227.5c-103,10.9-200.6,27.8-290,50.2c-10.5-45.6-18.2-89.8-23.7-132.2c-21.4-174.2,5-309.6,66.6-345.6
		c13.7-8.2,31.5-11.9,52.4-11.9V134.7c-38.3,0-73,8.2-103,25.5c-128.1,73.9-156.9,304.1-90.7,593.2C231.2,841,46.5,981,46.5,1128.7
		c0,148.2,185.6,288.6,470.1,375.7c-65.7,290-36.5,520.7,92.1,594.6c29.6,17.3,64.3,25.5,102.6,25.5c125.4,0,289.5-89.4,455.5-244.4
		c166,154.1,330.1,242.6,455.5,242.6c38.3,0,73-8.2,103-25.5c128.1-73.9,156.9-304.1,90.7-593.2
		C2098.8,1416.9,2283.5,1276.4,2283.5,1128.7L2283.5,1128.7z M1689.8,824.6c-16.9,58.8-37.8,119.5-61.6,180.1
		c-18.7-36.5-38.3-73-59.7-109.4c-21-36.5-43.3-72-65.7-106.7C1567.6,798.1,1630.1,810,1689.8,824.6L1689.8,824.6z M1481,1310.2
		c-35.6,61.6-72,119.9-109.9,174.2c-67.9,5.9-136.8,9.1-206.1,9.1c-68.9,0-137.7-3.2-205.2-8.7c-37.8-54.3-74.8-112.2-110.3-173.3
		c-34.7-59.7-66.1-120.4-94.8-181.5c28.3-61.1,60.2-122.2,94.4-181.9c35.6-61.6,72-119.9,109.9-174.2c67.9-5.9,136.8-9.1,206.1-9.1
		c68.9,0,137.7,3.2,205.2,8.7c37.8,54.3,74.8,112.2,110.3,173.3c34.7,59.7,66.1,120.4,94.8,181.5
		C1546.7,1189.3,1515.2,1250.4,1481,1310.2z M1628.3,1250.9c23.9,59.4,44.9,120,62.9,181.5c-59.7,14.6-122.7,26.9-187.9,36.5
		c22.3-35.1,44.7-71.1,65.7-108.1C1590,1324.3,1609.6,1287.4,1628.3,1250.9L1628.3,1250.9z M1165.9,1737.4
		c-42.4-43.8-84.8-92.6-126.8-145.9c41,1.8,83,3.2,125.4,3.2c42.9,0,85.3-0.9,126.8-3.2C1252.2,1642.4,1210.3,1691.1,1165.9,1737.4z
		 M826.7,1468.8c-64.7-9.6-127.2-21.4-186.9-36c16.9-58.8,37.8-119.5,61.6-180.1c18.7,36.5,38.3,73,59.7,109.4
		C782.5,1398.6,804.4,1434.2,826.7,1468.8z M1163.7,520c42.4,43.8,84.8,92.6,126.8,145.9c-41-1.8-83-3.2-125.4-3.2
		c-42.9,0-85.3,0.9-126.8,3.2C1077.4,615,1119.3,566.3,1163.7,520z M826.2,788.5c-22.3,35.1-44.7,71.1-65.7,108.1
		c-21,36.5-40.6,73-59.3,109.4c-23.9-59.4-44.9-120-62.9-181.5C698.1,810.4,761,798.1,826.2,788.5z M413.6,1359.4
		c-161.4-68.9-265.8-159.1-265.8-230.7c0-71.6,104.4-162.3,265.8-230.7c39.2-16.9,82.1-31.9,126.3-46.1
		c26,89.4,60.2,182.4,102.6,277.7c-41.9,94.8-75.7,187.4-101.2,276.3C496.1,1391.8,453.3,1376.3,413.6,1359.4L413.6,1359.4z
		 M658.9,2011c-62-35.6-88.9-171-67.9-345.2c5-42.9,13.2-88,23.2-134.1c89.4,21.9,186.9,38.8,289.5,49.7
		c61.6,84.3,125.4,161,189.7,228c-148.6,138.2-288.2,213.8-383,213.8C689.9,2022.8,672.6,2018.7,658.9,2011z M1740.5,1663.5
		c21.4,174.2-5,309.6-66.6,345.6c-13.7,8.2-31.5,11.9-52.4,11.9c-94.4,0-234.4-75.2-383-212.5c63.8-67,127.7-143.2,188.3-227.5
		c103-10.9,200.6-27.8,290-50.2C1727.2,1576.9,1735.4,1621.1,1740.5,1663.5L1740.5,1663.5z M1916,1359.4
		c-39.2,16.9-82.1,31.9-126.3,46.1c-26-89.4-60.2-182.4-102.6-277.7c42-94.8,75.7-187.4,101.2-276.3c45.1,14.1,88,29.6,128.1,46.5
		c161.4,68.8,265.8,159.1,265.8,230.7C2181.8,1200.3,2077.4,1291,1916,1359.4L1916,1359.4z"/>
	<path class="st0" d="M1164.6,1337.1c115.1,0,208.4-93.3,208.4-208.4c0-115.1-93.3-208.4-208.4-208.4
		c-115.1,0-208.4,93.3-208.4,208.4C956.2,1243.8,1049.5,1337.1,1164.6,1337.1z M148.1,2483.3H79.3v118.5H40.5v-292.8h96.9
		c33,0,58.3,7.5,76,22.5c17.8,15,26.8,36.9,26.8,65.6c0,18.2-5,34.1-14.9,47.7c-9.8,13.5-23.5,23.7-41,30.4l68.8,124.3v2.4h-41.4
		L148.1,2483.3z M79.3,2451.7h59.3c19.2,0,34.4-5,45.7-14.9c11.4-9.9,17.1-23.2,17.1-39.8c0-18.1-5.4-32-16.3-41.6
		c-10.7-9.7-26.3-14.5-46.7-14.7H79.3L79.3,2451.7z M379,2605.8c-29.5,0-53.5-9.7-72-29c-18.5-19.4-27.8-45.4-27.8-77.8v-6.8
		c0-21.6,4.1-40.8,12.3-57.7c8.3-17,19.8-30.3,34.6-39.8c14.9-9.7,31-14.5,48.3-14.5c28.3,0,50.3,9.3,66,28
		c15.7,18.6,23.5,45.3,23.5,80v15.5H316.5c0.5,21.5,6.8,38.8,18.7,52.1c12.1,13.1,27.4,19.7,45.9,19.7c13.1,0,24.3-2.7,33.4-8
		c9.1-5.4,17.1-12.5,23.9-21.3l22.7,17.7C442.8,2591.8,415.5,2605.8,379,2605.8L379,2605.8z M374.4,2410.7c-15,0-27.6,5.5-37.8,16.5
		c-10.2,10.9-16.5,26.2-18.9,45.9h109v-2.8c-1.1-18.9-6.2-33.5-15.3-43.9C402.3,2415.9,389.9,2410.7,374.4,2410.7L374.4,2410.7z
		 M641.5,2601.7c-2.2-4.3-3.9-11.9-5.2-22.9c-17.3,18-37.9,27-61.9,27c-21.5,0-39.1-6-52.9-18.1c-13.7-12.2-20.5-27.6-20.5-46.3
		c0-22.7,8.6-40.2,25.7-52.7c17.3-12.6,41.6-18.9,72.8-18.9h36.2v-17.1c0-13-3.9-23.3-11.7-31c-7.8-7.8-19.2-11.7-34.4-11.7
		c-13.3,0-24.4,3.3-33.4,10.1c-9,6.7-13.5,14.8-13.5,24.3h-37.4c0-10.9,3.8-21.3,11.5-31.4c7.8-10.2,18.2-18.2,31.4-24.1
		c13.3-5.9,27.8-8.8,43.6-8.8c25.1,0,44.7,6.3,58.9,18.9c14.2,12.5,21.6,29.7,22.1,51.7v100.2c0,20,2.5,35.9,7.6,47.7v3.2
		L641.5,2601.7z M579.7,2573.4c11.7,0,22.7-3,33.2-9.1c10.5-6,18-13.9,22.7-23.5v-44.6h-29.2c-45.6,0-68.4,13.3-68.4,40
		c0,11.7,3.9,20.8,11.7,27.4C557.6,2570.1,567.5,2573.4,579.7,2573.4L579.7,2573.4z M818.5,2575.4c13.3,0,24.9-4,34.8-12.1
		s15.4-18.1,16.5-30.2H905c-0.7,12.5-5,24.3-12.9,35.6s-18.5,20.2-31.8,26.9c-13.1,6.7-27.1,10.1-41.8,10.1
		c-29.6,0-53.2-9.9-70.8-29.6c-17.4-19.9-26.1-46.9-26.1-81.3v-6.2c0-21.2,3.9-40,11.7-56.5c7.8-16.5,18.9-29.3,33.4-38.4
		c14.6-9.1,31.8-13.7,51.7-13.7c24.4,0,44.7,7.3,60.7,21.9c16.2,14.6,24.9,33.6,25.9,56.9h-35.2c-1.1-14.1-6.4-25.6-16.1-34.6
		c-9.5-9.1-21.3-13.7-35.4-13.7c-18.9,0-33.6,6.8-44,20.5c-10.3,13.5-15.5,33.2-15.5,58.9v7c0,25.1,5.2,44.4,15.5,57.9
		C784.6,2568.6,799.3,2575.4,818.5,2575.4L818.5,2575.4z M997.3,2331.4v52.7h40.6v28.8h-40.6v135c0,8.7,1.8,15.3,5.4,19.7
		c3.6,4.3,9.8,6.4,18.5,6.4c4.3,0,10.2-0.8,17.7-2.4v30.2c-9.8,2.7-19.3,4-28.6,4c-16.6,0-29.2-5-37.6-15.1
		c-8.4-10.1-12.7-24.3-12.7-42.8v-135h-39.6v-28.8h39.6v-52.7H997.3z M1414.6,2601.7h-38.8l-147.4-225.7v225.7h-38.8v-292.8h38.8
		l147.8,226.7v-226.7h38.4L1414.6,2601.7z M1611.7,2601.7c-2.2-4.3-3.9-11.9-5.2-22.9c-17.3,18-37.9,27-61.9,27
		c-21.5,0-39.1-6-52.9-18.1c-13.7-12.2-20.5-27.6-20.5-46.3c0-22.7,8.6-40.2,25.7-52.7c17.3-12.6,41.6-18.9,72.8-18.9h36.2v-17.1
		c0-13-3.9-23.3-11.7-31c-7.8-7.8-19.2-11.7-34.4-11.7c-13.3,0-24.4,3.3-33.4,10.1c-9,6.7-13.5,14.8-13.5,24.3h-37.4
		c0-10.9,3.8-21.3,11.5-31.4c7.8-10.2,18.2-18.2,31.4-24.1c13.3-5.9,27.8-8.8,43.6-8.8c25.1,0,44.7,6.3,58.9,18.9
		c14.2,12.5,21.6,29.7,22.1,51.7v100.2c0,20,2.5,35.9,7.6,47.7v3.2L1611.7,2601.7z M1550,2573.4c11.7,0,22.7-3,33.2-9.1
		c10.5-6,18-13.9,22.7-23.5v-44.6h-29.2c-45.6,0-68.4,13.3-68.4,40c0,11.7,3.9,20.8,11.7,27.4
		C1527.8,2570.1,1537.8,2573.4,1550,2573.4L1550,2573.4z M1751.9,2331.4v52.7h40.6v28.8h-40.6v135c0,8.7,1.8,15.3,5.4,19.7
		c3.6,4.3,9.8,6.4,18.5,6.4c4.3,0,10.2-0.8,17.7-2.4v30.2c-9.8,2.7-19.3,4-28.6,4c-16.6,0-29.2-5-37.6-15.1
		c-8.4-10.1-12.7-24.3-12.7-42.8v-135h-39.6v-28.8h39.6v-52.7H1751.9z M1876.6,2601.7h-37.2v-217.6h37.2V2601.7z M1836.4,2326.4
		c0-6,1.8-11.1,5.4-15.3c3.8-4.2,9.2-6.2,16.5-6.2c7.2,0,12.7,2.1,16.5,6.2s5.6,9.3,5.6,15.3c0,6-1.9,11.1-5.6,15.1
		c-3.8,4-9.2,6-16.5,6c-7.2,0-12.7-2-16.5-6C1838.2,2337.5,1836.4,2332.4,1836.4,2326.4z M2008.2,2551.3l53.9-167.1h38l-78,217.6
		h-28.4l-78.8-217.6h38L2008.2,2551.3z M2223.4,2605.8c-29.5,0-53.5-9.7-72-29c-18.5-19.4-27.8-45.4-27.8-77.8v-6.8
		c0-21.6,4.1-40.8,12.3-57.7c8.3-17,19.8-30.3,34.6-39.8c14.9-9.7,31-14.5,48.3-14.5c28.3,0,50.3,9.3,66,28
		c15.7,18.6,23.5,45.3,23.5,80v15.5h-147.4c0.5,21.5,6.8,38.8,18.7,52.1c12.1,13.1,27.4,19.7,45.9,19.7c13.1,0,24.3-2.7,33.4-8
		c9.1-5.4,17.1-12.5,23.9-21.3l22.7,17.7C2287.2,2591.8,2259.8,2605.8,2223.4,2605.8L2223.4,2605.8z M2218.7,2410.7
		c-15,0-27.6,5.5-37.8,16.5c-10.2,10.9-16.5,26.2-18.9,45.9h109v-2.8c-1.1-18.9-6.2-33.5-15.3-43.9
		C2246.6,2415.9,2234.3,2410.7,2218.7,2410.7L2218.7,2410.7z"/>
</g>
</svg>
