<?xml version="1.0" encoding="utf-8"?>
<!-- Generator: Adobe Illustrator 25.1.0, SVG Export Plug-In . SVG Version: 6.00 Build 0)  -->
<svg version="1.1" id="Layer_1" xmlns="http://www.w3.org/2000/svg" xmlns:xlink="http://www.w3.org/1999/xlink" x="0px" y="0px"
	 viewBox="0 0 512 512" style="enable-background:new 0 0 512 512;" xml:space="preserve">
<style type="text/css">
	.st0{fill:#F5F5F5;}
</style>
<g>
	<path class="st0" d="M267.1,375.5c-6.3-5.3-6.9-13.3-6.9-13.3l-2.3-17.3H183l-2.4,17.3c0,0-0.7,8-6.9,13.3
		c-6.3,5.3-11.2,9.9-6.3,10.6c4.8,0.7,49.7,0.1,53,0c3.3,0.1,48.2,0.7,53,0C278.3,385.4,273.4,380.8,267.1,375.5z"/>
	<path class="st0" d="M92.9,230.4c0-8-5.6-14.5-12.6-14.5H20.6c-6.9,0-12.6,6.5-12.6,14.5v152.1c0,8,5.6,14.5,12.6,14.5h59.8
		c6.9,0,12.6-6.5,12.6-14.5L92.9,230.4L92.9,230.4z M44.2,232.2h12.6c0.9,0,1.6,0.8,1.6,1.8s-0.7,1.8-1.6,1.8H44.2
		c-0.9,0-1.6-0.8-1.6-1.8C42.6,233,43.3,232.2,44.2,232.2z M50,388.4c-3.5,0-6.3-3.2-6.3-7.2s2.8-7.2,6.3-7.2s6.3,3.2,6.3,7.2
		C56.3,385.2,53.4,388.4,50,388.4z M85,368H15.8V246.7H85V368L85,368z"/>
	<path class="st0" d="M486.4,132.5H357c-9.7,0-17.6,9.1-17.6,20.3v213.3c0,11.2,7.9,20.3,17.6,20.3h129.4c9.8,0,17.6-9.1,17.6-20.3
		V152.8C504,141.6,496.1,132.5,486.4,132.5z M396.3,375.2c-4.9,0-8.8-4.5-8.8-10.1s4-10.2,8.8-10.2c4.9,0,8.8,4.6,8.8,10.2
		C405.1,370.7,401.2,375.2,396.3,375.2z M421.7,375.2c-4.9,0-8.8-4.5-8.8-10.1s4-10.2,8.8-10.2c4.9,0,8.8,4.6,8.8,10.2
		S426.5,375.2,421.7,375.2z M447,375.2c-4.9,0-8.8-4.5-8.8-10.1s3.9-10.2,8.8-10.2s8.8,4.6,8.8,10.2S451.9,375.2,447,375.2z
		 M493,345.8H350.3V150.3H493V345.8L493,345.8z"/>
	<path class="st0" d="M379.5,115.4h21.7V70.1c0-9.2-6.5-16.7-14.5-16.7H54.1c-8,0-14.5,7.5-14.5,16.7v128.6h21.7V78.5h318.2V115.4
		L379.5,115.4z"/>
	<path class="st0" d="M107.8,278.3v50h216.6v-50H107.8z M220.4,314.7c-5.5,0-9.9-5.1-9.9-11.4s4.4-11.4,9.9-11.4s9.9,5.1,9.9,11.4
		C230.3,309.6,225.9,314.7,220.4,314.7z"/>
</g>
</svg>
